<svg xmlns="http://www.w3.org/2000/svg" viewBox="0 0 900 520" role="img" aria-labelledby="title desc">
<title id="title">Community garden illustration</title>
<desc id="desc">An illustrated community garden with raised beds, plants, sun, and volunteers.</desc>
<rect width="900" height="520" fill="#e8f5e9"/>
<circle cx="735" cy="95" r="58" fill="#ffd166"/>
<rect x="70" y="290" width="760" height="95" rx="18" fill="#8d6e63"/>
<rect x="110" y="230" width="210" height="90" rx="14" fill="#a5d6a7"/>
<rect x="345" y="230" width="210" height="90" rx="14" fill="#a5d6a7"/>
<rect x="580" y="230" width="210" height="90" rx="14" fill="#a5d6a7"/>
<g fill="#2e7d32">
<circle cx="165" cy="245" r="20"/><circle cx="220" cy="246" r="24"/><circle cx="275" cy="245" r="18"/>
<circle cx="400" cy="245" r="20"/><circle cx="455" cy="246" r="24"/><circle cx="510" cy="245" r="18"/>
<circle cx="635" cy="245" r="20"/><circle cx="690" cy="246" r="24"/><circle cx="745" cy="245" r="18"/>
</g>
<path d="M0 390 C180 345 320 460 510 410 C660 370 760 385 900 350 L900 520 L0 520 Z" fill="#66bb6a"/>
<g fill="#37474f">
<circle cx="250" cy="160" r="23"/><rect x="238" y="185" width="24" height="75" rx="12"/>
<circle cx="625" cy="160" r="23"/><rect x="613" y="185" width="24" height="75" rx="12"/>
</g>
<path d="M262 200 L310 230 M238 200 L195 230 M637 200 L690 230 M613 200 L570 230" stroke="#37474f" stroke-width="12" stroke-linecap="round"/>
<text x="450" y="470" text-anchor="middle" font-family="Arial, sans-serif" font-size="34" font-weight="700" fill="#1b5e20">GreenSprout Community Garden</text>
</svg>